<?xml version="1.0" encoding="UTF-8"?><svg id="uuid-6868482c-98ba-4c77-9c04-935b92d8e677" xmlns="http://www.w3.org/2000/svg" viewBox="0 0 886.5 237.7"><g id="uuid-9132a833-9bf3-40b9-96c2-27ed67f1a459"><g><path d="m102.9,237.7c-4.8-2.8-9.7-5.6-14.5-8.4-29.2-16.8-58.3-33.6-87.5-50.5-.3-.2-.6-.4-.9-.6V59.4C34.3,39.6,68.6,19.8,102.9,0c34.3,19.8,68.6,39.6,102.9,59.4v118.9c-3.1,1.8-6.3,3.6-9.4,5.4-30.7,17.7-61.5,35.5-92.2,53.2-.4.2-.7.5-1,.7,0,0-.2,0-.3,0ZM8.3,64.2v109.3c31.5,18.2,63.1,36.4,94.6,54.6,31.6-18.3,63.2-36.5,94.7-54.6v-109.2c-31.6-18.2-63.1-36.4-94.7-54.6-31.5,18.2-63,36.3-94.6,54.5Z" style="fill:#3f3e3e;"/><path d="m886.5,73.2h-17.5v47.3h-14v-47.2h-17.1v-10.8h48.6v10.7Z" style="fill:#3f3e3e;"/><path d="m794.4,120.6h-14v-58h13.9c6.7,11.8,13.5,23.8,20.3,35.7,0,0,.2,0,.3-.1v-35.6h13.9v58h-13.9c-6.7-11.8-13.5-23.7-20.3-35.6,0,0-.2,0-.2.1v35.5Z" style="fill:#3f3e3e;"/><path d="m545.7,120.6h-13.8c-6.8-11.9-13.6-23.8-20.4-35.7h-.2v35.7h-13.9v-58h13.9c6.8,11.9,13.5,23.8,20.3,35.7,0,0,.2-.1.3-.1v-35.6h13.8c0,19.2,0,38.5,0,58Z" style="fill:#3f3e3e;"/><path d="m486.1,91.5c0,6.2-1,12.1-4.1,17.6-4.4,7.9-11.4,11.9-20.3,12.3-6.6.3-12.6-1.4-17.7-5.7-4.4-3.8-7-8.7-8.1-14.3-1.6-7.8-1.6-15.6,1-23.2,3.7-10.7,13.1-17,24.5-16.4,12.3.6,21.3,8.3,23.6,20.6.6,2.9.8,6,1.1,9.1Zm-14.4,0v-1.3c0-4.2-.4-8.3-2.4-12.1-1.9-3.6-4.8-5.5-8.9-5.5s-7.2,1.8-9,5.6c-.5,1-.8,2-1.1,3-1.3,4.7-1.1,9.5-1,14.3.1,3.4.7,6.7,2.4,9.8,2.3,4.1,6.4,6,11,5,4.1-.9,6.2-3.9,7.5-7.5,1.3-3.7,1.5-7.5,1.5-11.3Z" style="fill:#3f3e3e;"/><path d="m737.3,62.5h13.2c7.1,19.3,14.3,38.6,21.4,58h-15c-1.1-3.5-2.2-7.1-3.4-10.7h-19.3c-1.1,3.6-2.2,7.1-3.3,10.7h-14.9c7.1-19.3,14.2-38.7,21.3-58Zm6.7,16.7h-.3c-2,6.5-4,13.1-6.1,19.7h12.5c-2-6.7-4-13.2-6.1-19.7Z" style="fill:#3f3e3e;"/><path d="m396.4,79.7h-13.8c-.1-.3-.1-.6-.2-.9-.3-3.1-2-5.2-5-6.1-2.7-.8-5.4-.7-7.9.6-4,2-4.5,6.4-.8,8.9,2.2,1.4,4.7,2.4,7.1,3.3,4,1.5,8.2,2.8,11.9,5.1,4,2.5,7.1,5.7,8.2,10.4,2,8.2-1.5,15.5-9.5,18.4-9.3,3.4-18.5,2.9-27.2-2-5.6-3.2-9.1-9.5-8.6-15.5h13.9c.1.8.2,1.5.3,2.3.5,3.2,2.2,5.3,5.4,6.2,2.7.7,5.4.9,8,.1,2.1-.6,3.7-1.9,4.1-4.2.4-2.4-.2-4.7-2.3-6-2.3-1.3-4.7-2.3-7.1-3.3-3.8-1.7-7.8-3.1-11.5-5-4-2.1-7.1-5.2-8.4-9.7-2-6.8.8-13.4,7.2-17.1,4.9-2.8,10.3-3.6,15.9-3.4,5.2.2,9.9,1.5,14.1,4.7,4,3.1,6,7.3,6.3,12.3,0,.2,0,.5-.1.9Z" style="fill:#3f3e3e;"/><path d="m627.9,120.6h-14v-58c.4,0,.7-.1,1.1-.1h23.4c4,0,7.9.9,11.5,2.9,6.8,3.8,10,9.8,9.7,17.5-.3,8.8-5.9,15.2-15,17.1-2.7.5-5.5.7-8.2.8-2.8.1-5.6,0-8.5,0v19.8Zm0-30.6c3.6,0,7.2.2,10.7,0,3.4-.2,5.8-2.1,6.5-5.1.3-1.2.4-2.5.3-3.8-.3-4.9-3.6-7.9-8.5-7.9h-7.8c-.4,0-.8,0-1.2.1v16.7Z" style="fill:#3f3e3e;"/><path d="m299.7,62.5h15.6c-6.5,19.4-13,38.7-19.5,58h-15.4c-6.4-19.3-12.9-38.6-19.4-58h15.5c3.8,13.9,7.6,27.9,11.4,41.8h.3c3.8-13.9,7.6-27.8,11.5-41.8Z" style="fill:#3f3e3e;"/><path d="m671.3,120.5v-58h13.8v47.3h24.4v10.7h-38.2Z" style="fill:#3f3e3e;"/><path d="m600.1,107.1h-8v13.4h-7.4v-13.4h-26.4c0-2.1-.5-4,.8-5.8,8.3-12.7,16.5-25.4,24.7-38.1.2-.2.3-.5.5-.7h7.8v38.6h8.1c0,2,0,3.9,0,6Zm-15.5-6.1v-28.1c-6.1,9.5-12,18.7-18,28.1h18Z" style="fill:#3f3e3e;"/><path d="m324.7,62.5h13.7v58h-13.7v-58Z" style="fill:#3f3e3e;"/><path d="m422.6,120.5h-13.7v-58h13.7v58Z" style="fill:#3f3e3e;"/><path d="m319.1,171.2v-16.8h2.8v22.3h-2.9c-3.6-5.5-7.3-11.1-11.2-17.1v17h-3v-22.2h2.9c3.6,5.5,7.3,11.2,11,16.8.2.1.3,0,.4,0Z" style="fill:#3f3e3e;"/><path d="m390.6,171.2v-16.8h2.8v22.2h-2.9c-3.6-5.5-7.3-11.2-11-16.8-.1,0-.2,0-.3,0v16.7h-2.8v-22.2h2.9c3.6,5.6,7.3,11.2,11,16.8,0,.1.2.1.3,0Z" style="fill:#3f3e3e;"/><path d="m494.1,154.5h2.9c1.8,2.8,3.7,5.6,5.5,8.4,1.8,2.8,3.7,5.7,5.8,8.4v-16.8h2.8v22.2h-3c-3.6-5.5-7.3-11.1-11-16.8,0,0-.2,0-.3,0v16.7h-2.9c.2-7.4.2-14.8.2-22.2Z" style="fill:#3f3e3e;"/><path d="m464.5,167.2c1.7,3.1,3.5,6.3,5.3,9.5h-3.2c-1.6-2.9-3.2-5.9-4.8-8.9h-5.3v8.9h-2.8v-22.3h1.5c2.4,0,4.9,0,7.3.2,3.4.2,5.6,2,6.1,4.7.7,3.5-.5,5.9-3.7,7.6-.2,0-.3,0-.4.3Zm-8.1-1.9c2,0,3.8.2,5.6,0,2.3-.2,3.6-1.8,3.8-3.8,0-2.3-.8-3.9-2.9-4.3-2.1-.4-4.2-.3-6.4-.4,0,2.9,0,5.6,0,8.5Z" style="fill:#3f3e3e;"/><path d="m347.2,173.1v-5h-5.1v-2.3h8v7.9c0,.3-.2.6-.5.8-.7.6-1.4,1.2-2.2,1.6-2.2,1-4.5,1.2-6.8.9-4.1-.6-6.9-3.5-7.4-7.8-.3-2.7-.3-5.5.2-8.2,1.1-6,7.9-8.8,13.2-5.6,2.1,1.3,3.1,3.2,3.4,5.6h-2.8c-.1,0-.1-.2-.2-.4-1-2.9-2.6-4.1-5.3-4.1-2.8,0-4.7,1.5-5.5,4.3-.8,2.9-.8,6-.1,8.9,1.4,5,7.3,6.8,11.1,3.4Z" style="fill:#3f3e3e;"/><path d="m536.4,173.1v-5h-5.1v-2.3h8c0,2.7,0,5.3,0,7.9,0,.5-.7,1.1-1.2,1.5-5.4,4.3-13.7,1.7-15.5-5-.9-3.5-.9-7.1.3-10.5,1.9-5.8,10.2-7.6,14.4-3.3,1.2,1.2,1.8,2.7,2,4.5h-2.7c-.6-1-.9-2.1-1.6-2.9-2.2-2.4-6.8-2-8.6.8-.4.7-.8,1.4-1,2.2-.7,2.9-.8,5.9,0,8.8,1.1,4.5,5.9,6.4,9.9,4.1.5-.2.8-.6,1.2-.8Z" style="fill:#3f3e3e;"/><path d="m405.1,154.4h13.9v2.4h-10.9v7.2h9.6v2.4h-9.6v8h11.1v2.3h-14c-.1-7.4-.1-14.8-.1-22.3Z" style="fill:#3f3e3e;"/><path d="m432.2,166.4v8h11.1v2.3h-14v-22.2h13.9v2.3h-11v7.2h9.6v2.3c-3.2.1-6.4.1-9.6.1Z" style="fill:#3f3e3e;"/><path d="m283.6,156.8v7.3h9.5v2.3h-9.5v8h11.1v2.3h-14v-22.2h13.8v2.3c-3.6,0-7.2,0-10.9,0Z" style="fill:#3f3e3e;"/><path d="m361.7,154.5h2.7v22.2h-2.7v-22.2Z" style="fill:#3f3e3e;"/><path d="m482.1,176.7h-2.7v-22.3h2.7v22.3Z" style="fill:#3f3e3e;"/><path d="m76.5,203.6c-2.9-1.7-5.5-3.2-8.2-4.7V48.3c-3.2,1.8-6.2,3.6-9.2,5.3v140c-2.8-1.6-5.4-3.1-8.1-4.7V58.2c-3.2,1.8-6.1,3.5-9.2,5.3v120.1c-2.9-1.7-5.5-3.2-8.3-4.8v-110.6c-3.1,1.8-6.1,3.5-9.2,5.3v100c-2.9-1.6-5.5-3.2-8.1-4.7v-100c28.8-16.6,57.7-33.3,86.6-50,28.9,16.6,57.7,33.3,86.5,49.9v100.1c-28.7,16.6-57.5,33.2-86.5,49.9V28.2c-3.2,1.8-6.1,3.5-9.1,5.3v180c-2.8-1.6-5.5-3.1-8.2-4.7V38.2c-3.2,1.8-6.1,3.5-9.1,5.3,0,53.3,0,106.5,0,160.1Z" style="fill:#3f3e3e;"/></g></g></svg>