<svg width="32" height="43" viewBox="0 0 32 43" fill="none" xmlns="http://www.w3.org/2000/svg">
<path d="M17.8867 41.7656C16.9023 42.9961 15.0156 42.9961 14.0312 41.7656C9.84766 36.4336 0.25 23.7188 0.25 16.5C0.25 7.80469 7.30469 0.75 16 0.75C24.6953 0.75 31.75 7.80469 31.75 16.5C31.75 23.7188 22.1523 36.4336 17.8867 41.7656ZM16 11.25C14.1133 11.25 12.3906 12.3164 11.4062 13.875C10.5039 15.5156 10.5039 17.5664 11.4062 19.125C12.3906 20.7656 14.1133 21.75 16 21.75C17.8047 21.75 19.5273 20.7656 20.5117 19.125C21.4141 17.5664 21.4141 15.5156 20.5117 13.875C19.5273 12.3164 17.8047 11.25 16 11.25Z" fill="black"/>
</svg>
